<?xml version="1.0" encoding="UTF-8" standalone="no"?>
<svg
   width="210mm"
   height="297mm"
   viewBox="0 0 209.99999 297.00001"
   version="1.1"
   id="svg1"
   sodipodi:docname="tray_side_template-Sketch.svg"
   inkscape:export-filename="tray_side_template-Sketch.pdf"
   inkscape:export-xdpi="254"
   inkscape:export-ydpi="254"
   inkscape:version="1.4.3 (0d15f75042, 2025-12-25)"
   xmlns:inkscape="http://www.inkscape.org/namespaces/inkscape"
   xmlns:sodipodi="http://sodipodi.sourceforge.net/DTD/sodipodi-0.dtd"
   xmlns="http://www.w3.org/2000/svg"
   xmlns:svg="http://www.w3.org/2000/svg">
  <defs
     id="defs1" />
  <sodipodi:namedview
     id="namedview1"
     pagecolor="#ffffff"
     bordercolor="#000000"
     borderopacity="0.25"
     inkscape:showpageshadow="2"
     inkscape:pageopacity="0.0"
     inkscape:pagecheckerboard="0"
     inkscape:deskcolor="#d1d1d1"
     inkscape:document-units="mm"
     inkscape:zoom="0.78035986"
     inkscape:cx="245.3996"
     inkscape:cy="693.91063"
     inkscape:window-width="1920"
     inkscape:window-height="1012"
     inkscape:window-x="0"
     inkscape:window-y="0"
     inkscape:window-maximized="1"
     inkscape:current-layer="Part__Part2DObjectPython" />
  <g
     id="Part__Part2DObjectPython"
     transform="matrix(1,0,0,-1,105,148.5)">
    <path
       id="Part__Part2DObjectPython_w0000"
       d="m 60.5,137.5 h -121 a 11,11 0 0 0 11,11 h 99 a 11,11 0 0 0 11,-11 v -22 h -121 -22 a 11,11 0 0 1 -11,-11 v -99 a 11,11 0 0 1 11,-11 v 121 m 22,22 v -22 -121 -22 -121 h 121 v 121 22 121 h 22 a 11,11 0 0 0 11,-11 v -99 a 11,11 0 0 0 -11,-11 h -22 -27 v 42 l -17,-17 h -33 l -17,17 v -42 h -27 -22 m 66,17 -17,-17 17,-17 v 34 8 m 33,0 v -8 l 17,-17 -17,-17 v 34 m -50,25 h 67 m -50,-59 h 33 m 66,138 v -121 m -143,-22 h 121"
       stroke="#f1f3f5"
       stroke-width="0.7 px"
       style="fill:none;fill-opacity:1;fill-rule:evenodd;stroke-width:0.2;stroke-linecap:round;stroke-miterlimit:4;stroke-dasharray:none;stroke:#000000;stroke-linejoin:round" />
    <title
       id="title1">b'Part__Part2DObjectPython'</title>
  </g>
</svg>
